<svg width="1529" height="546" viewBox="0 0 1529 546" fill="none" xmlns="http://www.w3.org/2000/svg">
<rect x="0.5" y="0.5" width="1528" height="545" rx="7.5" fill="#161B22"/>
<rect x="0.5" y="0.5" width="1528" height="545" rx="7.5" stroke="#30363D"/>
<g clip-path="url(#clip0_0_116)">
<path d="M1530.59 98V546.749H-0.262787V421.096C152.529 466.944 311.958 490.211 472.334 490.066C881.082 490.066 1253 341.292 1530.59 98Z" fill="#EAF5FF" fill-opacity="0.07"/>
<path d="M153.885 356.216C153.885 356.216 164.389 354.786 164.368 348.09" stroke="#939AFF" stroke-width="2" stroke-linecap="round" stroke-linejoin="round"/>
<path d="M174.86 356.186C174.86 356.186 164.356 354.786 164.336 348.09M151.759 366.351C151.759 366.351 164.282 364.631 164.272 356.585M176.923 366.3C176.923 366.3 164.314 364.631 164.304 356.585M151.759 377.354C151.759 377.354 164.293 375.635 164.272 367.599M176.955 377.303C176.955 377.303 164.336 375.635 164.325 367.599M153.715 387.498C153.715 387.498 164.347 386.039 164.347 379.223" stroke="#939AFF" stroke-width="2" stroke-linecap="round" stroke-linejoin="round"/>
<path d="M175.063 387.458C175.063 387.458 164.357 386.039 164.346 379.223M153.736 398.952C153.736 398.952 164.368 397.492 164.368 390.677C164.388 397.492 175.083 398.912 175.083 398.912M164.293 349.04L164.421 412.854M218.83 421.679C218.83 421.679 229.333 420.25 229.322 413.554" stroke="#939AFF" stroke-width="2" stroke-linecap="round" stroke-linejoin="round"/>
<path d="M239.836 421.649C239.836 421.649 229.332 420.25 229.322 413.554M216.746 431.813C216.746 431.813 229.28 430.095 229.258 422.049M241.909 431.813C241.909 431.813 229.301 430.144 229.279 422.099M216.768 442.807C216.768 442.807 229.301 441.089 229.28 433.053M241.931 442.807C241.931 442.807 229.322 441.138 229.301 433.103M218.735 452.961C218.735 452.961 229.365 451.503 229.365 444.686" stroke="#939AFF" stroke-width="2" stroke-linecap="round" stroke-linejoin="round"/>
<path d="M239.996 452.922C239.996 452.922 229.364 451.503 229.364 444.686M229.27 414.503L228.281 466.754M1378.64 354.007C1378.64 354.007 1368.14 352.618 1368.13 345.922M1357.63 354.047C1357.63 354.047 1368.14 352.618 1368.12 345.922M1380.77 364.131C1380.77 364.131 1368.23 362.462 1368.21 354.416M1355.6 364.181C1355.6 364.181 1368.21 362.462 1368.19 354.416M1380.79 375.135C1380.79 375.135 1368.25 373.466 1368.23 365.421M1355.64 375.185C1355.64 375.185 1368.23 373.466 1368.21 365.421M1378.91 385.289C1378.91 385.289 1368.28 383.87 1368.28 377.054M1357.56 385.329C1357.56 385.329 1368.26 383.87 1368.19 377.054M1378.93 396.743C1378.93 396.743 1368.3 395.324 1368.3 388.508M1357.59 396.833C1357.59 396.833 1368.22 395.374 1368.22 388.557M1368.18 346.871L1368.31 410.676M1313.93 419.71C1313.93 419.71 1303.43 418.311 1303.41 411.615" stroke="#939AFF" stroke-width="2" stroke-linecap="round" stroke-linejoin="round"/>
<path d="M1292.92 419.74C1292.92 419.74 1303.43 418.311 1303.41 411.615M1316.06 429.814C1316.06 429.814 1303.52 428.145 1303.5 420.1M1290.89 429.874C1290.89 429.874 1303.5 428.156 1303.48 420.11M1316.08 440.808C1316.08 440.808 1303.54 439.139 1303.52 431.104M1290.91 440.878C1290.91 440.878 1303.52 439.16 1303.5 431.124M1314.2 450.983C1314.2 450.983 1303.57 449.563 1303.57 442.747M1292.85 451.023C1292.85 451.023 1303.54 449.563 1303.53 442.747M1303.47 412.564L1304.67 464.815M164.729 434.682L170.725 440.299L164.751 445.936M1367.22 443.767L1361.23 438.15L1367.2 432.513" stroke="#939AFF" stroke-width="2" stroke-linecap="round" stroke-linejoin="round"/>
<path d="M-0.560623 413.943L186.544 413.794C194.372 413.782 200.729 419.737 200.747 427.096C200.749 428.846 200.386 430.579 199.676 432.196C198.966 433.814 197.925 435.284 196.611 436.522C193.957 439.025 190.355 440.433 186.597 440.438H185.278M187.905 467.073L239.773 466.983C241.633 466.979 243.476 467.32 245.196 467.986C246.916 468.652 248.48 469.63 249.799 470.865C251.117 472.099 252.163 473.566 252.878 475.181C253.593 476.795 253.962 478.527 253.965 480.277C253.981 483.444 252.788 486.511 250.605 488.922M196.941 467.053L162.698 467.113C160.835 467.118 158.99 466.778 157.267 466.112C155.544 465.445 153.978 464.465 152.658 463.229C151.339 461.992 150.292 460.523 149.578 458.905C148.863 457.288 148.495 455.553 148.495 453.801C148.491 452.052 148.854 450.319 149.562 448.701C150.271 447.084 151.311 445.614 152.624 444.375C153.938 443.136 155.498 442.152 157.215 441.48C158.933 440.808 160.774 440.461 162.635 440.459H167.62M1532.36 411.565L1343.47 411.705C1339.72 411.713 1336.12 413.124 1333.46 415.628C1332.15 416.868 1331.11 418.338 1330.4 419.956C1329.69 421.574 1329.33 423.308 1329.34 425.057C1329.34 426.807 1329.71 428.538 1330.42 430.153C1331.14 431.768 1332.18 433.234 1333.5 434.468C1334.82 435.703 1336.38 436.681 1338.1 437.347C1339.82 438.013 1341.67 438.354 1343.53 438.35H1344.86M1342.42 464.995L1290.55 465.085C1288.69 465.088 1286.85 465.435 1285.13 466.108C1283.41 466.78 1281.85 467.765 1280.54 469.005C1279.23 470.245 1278.19 471.716 1277.48 473.335C1276.77 474.953 1276.41 476.687 1276.41 478.437C1276.42 481.935 1277.89 485.29 1280.51 487.772M1333.32 465.005L1367.57 464.945C1371.33 464.937 1374.93 463.526 1377.59 461.022C1378.9 459.782 1379.94 458.311 1380.65 456.694C1381.36 455.076 1381.72 453.342 1381.71 451.593C1381.71 449.843 1381.34 448.111 1380.62 446.496C1379.91 444.881 1378.86 443.415 1377.54 442.181C1374.88 439.688 1371.27 438.292 1367.51 438.3H1362.53M839.708 487.543L765.844 392.995M765.844 392.995L692.044 487.802M765.844 392.995L766.046 488.522M765.939 438.75L727.604 487.012M721.597 449.514L700.176 422.469M700.176 422.469L648.202 487.862M700.176 422.469L700.293 476.978M699.719 452.542L670.526 488.702M882.549 486.563L831.638 422.229M831.638 422.229L810.333 449.484M831.638 422.229L831.744 476.738M831.181 452.302L821.869 464.395M750.088 457.059L716.41 457.119M815.001 456.949L766.524 457.029M865.965 466.894L833.095 466.953M686.845 467.993L664.903 467.724" stroke="#939AFF" stroke-width="2" stroke-linecap="round" stroke-linejoin="round"/>
<g opacity="0.25">
<path d="M967.331 449.804C967.331 449.804 958.486 448.634 958.465 442.977" stroke="#939AFF" stroke-width="2" stroke-linecap="round" stroke-linejoin="round"/>
<path d="M949.631 449.804C949.631 449.804 958.476 448.604 958.465 442.947M969.128 458.329C969.128 458.329 958.56 456.919 958.497 450.143" stroke="#939AFF" stroke-width="2" stroke-linecap="round" stroke-linejoin="round"/>
<path d="M947.919 458.369C947.919 458.369 958.551 456.919 958.551 450.143M969.138 467.604C969.138 467.604 958.582 466.195 958.571 459.418" stroke="#939AFF" stroke-width="2" stroke-linecap="round" stroke-linejoin="round"/>
<path d="M947.94 467.644C947.94 467.644 958.571 466.195 958.571 459.418M967.554 476.158C967.554 476.158 958.603 474.97 958.582 469.223M949.577 476.188C949.577 476.188 958.582 474.97 958.571 469.193M958.518 443.787L958.603 487.702M1066.15 453.172C1066.15 453.172 1058.59 452.172 1058.58 447.345C1058.59 452.202 1051.03 453.202 1051.03 453.202M1067.68 460.448C1067.68 460.448 1058.65 459.248 1058.64 453.451M1049.57 460.478C1049.57 460.478 1058.64 459.248 1058.63 453.481M1067.69 468.363C1067.69 468.363 1058.67 467.164 1058.66 461.367M1049.59 468.403C1049.59 468.403 1058.65 467.164 1058.64 461.407M1066.34 475.669C1066.34 475.669 1058.68 474.67 1058.67 469.743M1050.99 475.699C1050.99 475.699 1058.67 474.65 1058.66 469.702M1058.62 448.035L1058.69 485.524M1035.74 431.074C1035.74 431.074 1025.21 429.685 1025.18 422.959" stroke="#939AFF" stroke-width="2" stroke-linecap="round" stroke-linejoin="round"/>
<path d="M1014.67 431.114C1014.67 431.114 1025.21 429.685 1025.18 422.959M1037.87 441.218C1037.87 441.218 1025.3 439.549 1025.28 431.484M1012.64 441.268C1012.64 441.268 1025.28 439.549 1025.26 431.484M1037.89 452.252C1037.89 452.252 1025.32 450.583 1025.3 442.517M1012.66 452.302C1012.66 452.302 1025.3 450.583 1025.28 442.518M1036 462.437C1036 462.437 1025.36 461.017 1025.36 454.171M1014.61 462.476C1014.61 462.476 1025.32 461.017 1025.31 454.171M1036.03 473.92C1036.03 473.92 1025.4 472.501 1025.4 465.654M1014.63 473.95C1014.63 473.95 1025.34 472.501 1025.33 465.654M1025.25 423.918L1025.38 487.892M1001.31 385.749C1001.31 385.749 990.773 384.36 990.763 377.634M980.247 385.839C980.247 385.839 990.772 384.41 990.762 377.684M1003.43 395.894C1003.43 395.894 990.868 394.225 990.857 386.159M978.218 395.944C978.218 395.944 990.847 394.225 990.836 386.159M1003.45 406.927C1003.45 406.927 990.889 405.258 990.879 397.193M978.238 406.977C978.238 406.977 990.868 405.258 990.857 397.193M1001.57 417.112C1001.57 417.112 990.942 415.693 990.942 408.846M980.173 417.152C980.173 417.152 990.889 415.693 990.879 408.846M1001.59 428.596C1001.59 428.596 990.963 427.166 990.963 420.33M980.205 428.626C980.205 428.626 990.921 427.166 990.9 420.33M1001.62 439.889C1001.62 439.889 990.985 438.47 990.985 431.624M980.227 439.929C980.227 439.929 990.943 438.47 990.922 431.624M1001.65 452.572C1001.65 452.572 991.017 451.153 991.017 444.316M980.247 452.612C980.247 452.612 990.964 451.153 990.953 444.317M1001.67 465.254C1001.67 465.254 991.038 463.835 991.038 456.999M980.279 465.295C980.279 465.295 990.996 463.835 990.974 456.999M990.815 378.593L991.038 487.953M479.553 454.231C479.553 454.231 471.994 453.232 471.984 448.404C471.994 453.251 464.436 454.251 464.436 454.251M481.073 461.507C481.073 461.507 472.058 460.308 472.048 454.511M462.98 461.537C462.98 461.537 472.048 460.308 472.037 454.541M481.094 469.423C481.094 469.423 472.08 468.223 472.068 462.426M462.99 469.462C462.99 469.462 472.058 468.223 472.048 462.467M479.744 476.729C479.744 476.729 472.09 475.729 472.08 470.802M464.383 476.789C464.383 476.789 472.08 475.74 472.068 470.791M472.016 449.084L472.101 488.892M559.689 450.533C559.689 450.533 568.534 449.334 568.523 443.687C568.534 449.334 577.389 450.503 577.389 450.503M557.934 459.069C557.934 459.069 568.491 457.629 568.481 450.853M579.122 459.039C579.122 459.039 568.491 457.629 568.491 450.853M557.956 468.343C557.956 468.343 568.512 466.904 568.502 460.128" stroke="#939AFF" stroke-width="2" stroke-linecap="round" stroke-linejoin="round"/>
<path d="M579.122 468.313C579.122 468.313 568.491 466.904 568.491 460.128M559.572 476.899C559.572 476.899 568.534 475.669 568.512 469.902M577.559 476.869C577.559 476.869 568.544 475.669 568.534 469.922M568.481 444.487L568.576 488.402M491.215 432.063C491.215 432.063 501.74 430.624 501.729 423.908" stroke="#939AFF" stroke-width="2" stroke-linecap="round" stroke-linejoin="round"/>
<path d="M512.275 432.024C512.275 432.024 501.739 430.624 501.73 423.908M489.121 442.218C489.121 442.218 501.687 440.489 501.665 432.434M514.348 442.168C514.348 442.168 501.708 440.489 501.686 432.434M489.153 453.242C489.153 453.242 501.708 451.522 501.687 443.467M514.369 453.202C514.369 453.202 501.729 451.522 501.707 443.467M491.077 463.416C491.077 463.416 501.708 461.957 501.708 455.12M512.466 463.376C512.466 463.376 501.75 461.957 501.739 455.12M491.098 474.899C491.098 474.899 501.729 473.441 501.729 466.604M512.498 474.859C512.498 474.859 501.772 473.441 501.761 466.604M501.676 424.857L501.803 488.832M525.458 386.609C525.458 386.609 535.981 385.18 535.971 378.464C535.981 385.181 546.517 386.569 546.517 386.569M523.374 396.763C523.374 396.763 535.929 395.044 535.908 386.979M548.59 396.723C548.59 396.723 535.95 395.044 535.928 386.979M523.395 407.827C523.395 407.827 535.95 406.108 535.939 398.043M548.612 407.747C548.612 407.747 535.971 406.078 535.95 398.012M525.319 417.972C525.319 417.972 535.95 416.512 535.95 409.666M546.719 417.931C546.719 417.931 535.993 416.512 535.981 409.666M525.341 429.455C525.341 429.455 535.972 427.995 535.972 421.15M546.74 429.414C546.74 429.414 536.013 427.995 536.003 421.15M525.361 440.749C525.361 440.749 535.993 439.289 535.993 432.453M546.762 440.709C546.762 440.709 536.035 439.289 536.024 432.453M525.393 453.432C525.393 453.432 536.024 451.972 536.024 445.136M546.783 453.391C546.783 453.391 536.067 451.972 536.046 445.136M525.415 466.114C525.415 466.114 536.046 464.655 536.046 457.819M546.815 466.075C546.815 466.075 536.088 464.655 536.078 457.819M535.918 379.413L536.141 488.771" stroke="#939AFF" stroke-width="2" stroke-linecap="round" stroke-linejoin="round"/>
</g>
<g opacity="0.25">
<path d="M1533.43 512.028L-2.33578 514.327M1225.85 487.782C1223.5 487.719 1221.17 488.25 1219.11 489.32C1217.05 490.39 1215.33 491.96 1214.13 493.867C1212.94 495.773 1212.31 497.946 1212.31 500.16C1212.31 502.374 1212.94 504.547 1214.13 506.453C1215.33 508.36 1217.05 509.93 1219.11 511C1221.17 512.07 1223.5 512.601 1225.85 512.538M1180.67 512.428C1171.28 512.445 1163.68 519.617 1163.69 528.449C1163.71 537.281 1171.34 544.427 1180.74 544.41M304.642 489.261C306.995 489.194 309.324 489.721 311.387 490.787C313.45 491.853 315.171 493.42 316.372 495.324C317.573 497.228 318.209 499.4 318.214 501.614C318.219 503.827 317.592 506.002 316.4 507.91C315.207 509.819 313.492 511.392 311.434 512.466C309.375 513.541 307.048 514.076 304.695 514.017M350.557 513.767C353.47 513.762 356.332 514.477 358.858 515.842C361.383 517.207 363.482 519.173 364.944 521.542C366.406 523.911 367.178 526.6 367.184 529.339C367.189 532.077 366.428 534.769 364.976 537.143C363.524 539.518 361.433 541.491 358.913 542.865C356.393 544.239 353.533 544.965 350.621 544.97" stroke="#939AFF" stroke-width="2" stroke-linecap="round" stroke-linejoin="round"/>
</g>
<path opacity="0.25" fill-rule="evenodd" clip-rule="evenodd" d="M1128.5 257.521C1127.68 257.557 1126.87 257.37 1126.16 256.984C1125.45 256.598 1124.88 256.028 1124.51 255.342C1124.15 254.683 1123.94 253.962 1123.89 253.223C1123.89 252.878 1123.75 252.548 1123.49 252.304C1123.23 252.06 1122.88 251.923 1122.51 251.923C1122.14 251.923 1121.79 252.06 1121.53 252.304C1121.27 252.548 1121.13 252.878 1121.13 253.223C1121.13 253.791 1121.02 254.355 1120.79 254.881C1120.56 255.407 1120.22 255.885 1119.79 256.287C1119.37 256.689 1118.86 257.007 1118.3 257.222C1117.74 257.437 1117.14 257.546 1116.54 257.541C1116.35 257.535 1116.17 257.564 1115.99 257.627C1115.82 257.69 1115.66 257.784 1115.53 257.906C1115.4 258.027 1115.29 258.172 1115.22 258.333C1115.15 258.493 1115.11 258.666 1115.11 258.84C1115.11 259.015 1115.15 259.187 1115.22 259.348C1115.29 259.508 1115.4 259.654 1115.53 259.775C1115.66 259.896 1115.82 259.991 1115.99 260.053C1116.17 260.116 1116.35 260.145 1116.54 260.139C1117.34 260.114 1118.13 260.299 1118.83 260.673C1119.53 261.047 1120.1 261.596 1120.49 262.258C1120.87 262.936 1121.09 263.682 1121.14 264.447C1121.16 265.154 1121.77 265.721 1122.52 265.727C1122.88 265.724 1123.23 265.587 1123.49 265.346C1123.74 265.105 1123.89 264.778 1123.89 264.437C1123.89 263.869 1124.01 263.306 1124.24 262.781C1124.47 262.255 1124.8 261.778 1125.23 261.377C1125.66 260.975 1126.17 260.657 1126.72 260.441C1127.28 260.225 1127.88 260.116 1128.48 260.119C1128.84 260.104 1129.18 259.96 1129.42 259.718C1129.67 259.476 1129.8 259.155 1129.8 258.82C1129.8 258.488 1129.67 258.169 1129.42 257.928C1129.18 257.686 1128.85 257.541 1128.5 257.521Z" stroke="#939AFF" stroke-width="2" stroke-linecap="round" stroke-linejoin="round"/>
<path fill-rule="evenodd" clip-rule="evenodd" d="M816.755 330.23C815.913 330.263 815.078 330.069 814.349 329.671C813.62 329.272 813.027 328.686 812.64 327.981C812.271 327.3 812.055 326.556 812.003 325.793C812.003 325.438 811.853 325.097 811.586 324.845C811.319 324.594 810.956 324.453 810.579 324.453C810.201 324.453 809.838 324.594 809.571 324.845C809.304 325.097 809.154 325.438 809.154 325.793C809.157 326.379 809.036 326.961 808.799 327.503C808.562 328.045 808.213 328.538 807.772 328.952C807.331 329.367 806.807 329.695 806.23 329.918C805.654 330.141 805.036 330.254 804.412 330.251C804.055 330.28 803.723 330.435 803.481 330.683C803.239 330.932 803.105 331.257 803.105 331.595C803.105 331.932 803.239 332.257 803.481 332.506C803.723 332.754 804.055 332.909 804.412 332.939C805.24 332.907 806.06 333.094 806.781 333.477C807.502 333.86 808.096 334.425 808.495 335.107C808.885 335.811 809.113 336.584 809.164 337.376C809.187 338.103 809.815 338.685 810.589 338.695C810.964 338.693 811.323 338.552 811.589 338.304C811.856 338.055 812.008 337.719 812.014 337.366C812.009 336.78 812.129 336.199 812.365 335.657C812.601 335.115 812.949 334.622 813.389 334.208C813.829 333.793 814.352 333.465 814.928 333.242C815.504 333.019 816.121 332.905 816.744 332.909C816.934 332.913 817.123 332.881 817.299 332.816C817.476 332.75 817.637 332.653 817.773 332.528C817.908 332.403 818.016 332.254 818.09 332.089C818.164 331.925 818.202 331.748 818.202 331.569C818.202 331.391 818.164 331.214 818.09 331.05C818.016 330.885 817.908 330.736 817.773 330.611C817.637 330.486 817.476 330.388 817.299 330.323C817.123 330.258 816.934 330.226 816.744 330.23H816.755ZM1017.21 310.961C1016.62 310.978 1016.03 310.838 1015.51 310.558C1015 310.277 1014.58 309.866 1014.3 309.372C1014.04 308.889 1013.89 308.362 1013.85 307.823C1013.78 307.623 1013.65 307.449 1013.47 307.325C1013.28 307.202 1013.07 307.136 1012.84 307.136C1012.62 307.136 1012.4 307.202 1012.22 307.325C1012.04 307.449 1011.9 307.623 1011.83 307.823C1011.84 308.237 1011.75 308.647 1011.59 309.031C1011.42 309.414 1011.18 309.762 1010.87 310.055C1010.55 310.349 1010.18 310.58 1009.78 310.738C1009.37 310.895 1008.93 310.974 1008.49 310.971C1008.28 311.036 1008.1 311.164 1007.97 311.334C1007.83 311.505 1007.76 311.71 1007.76 311.92C1007.76 312.131 1007.83 312.336 1007.97 312.507C1008.1 312.677 1008.28 312.804 1008.49 312.87C1009.08 312.846 1009.66 312.976 1010.17 313.247C1010.68 313.517 1011.1 313.916 1011.38 314.399C1011.65 314.893 1011.82 315.439 1011.85 315.998C1011.89 316.523 1012.36 316.929 1012.92 316.927C1013.19 316.928 1013.45 316.833 1013.64 316.66C1013.84 316.488 1013.96 316.251 1013.98 315.998C1013.97 315.584 1014.06 315.174 1014.22 314.79C1014.39 314.407 1014.64 314.058 1014.95 313.765C1015.26 313.472 1015.63 313.24 1016.03 313.083C1016.44 312.926 1016.88 312.847 1017.32 312.85C1017.57 312.824 1017.79 312.714 1017.96 312.54C1018.13 312.365 1018.22 312.139 1018.22 311.905C1018.22 311.671 1018.13 311.445 1017.96 311.271C1017.79 311.097 1017.57 310.987 1017.32 310.961H1017.21Z" stroke="#939AFF" stroke-width="2" stroke-linecap="round" stroke-linejoin="round"/>
<path d="M286.831 280.297C287.232 278.809 286.275 277.297 284.693 276.92C283.111 276.542 281.503 277.442 281.102 278.929C280.701 280.417 281.658 281.929 283.24 282.306C284.822 282.684 286.43 281.784 286.831 280.297Z" stroke="#939AFF" stroke-width="2" stroke-linecap="round" stroke-linejoin="round"/>
<path d="M1210.91 369.064C1211.31 367.576 1210.35 366.064 1208.77 365.687C1207.19 365.309 1205.58 366.209 1205.18 367.696C1204.78 369.184 1205.73 370.696 1207.32 371.073C1208.9 371.451 1210.51 370.551 1210.91 369.064Z" stroke="#939AFF" stroke-width="2" stroke-linecap="round" stroke-linejoin="round"/>
<path d="M1254.01 247.959C1254.41 246.472 1253.46 244.96 1251.88 244.582C1250.29 244.204 1248.69 245.104 1248.28 246.592C1247.88 248.079 1248.84 249.591 1250.42 249.969C1252 250.346 1253.61 249.447 1254.01 247.959Z" stroke="#939AFF" stroke-width="2" stroke-linecap="round" stroke-linejoin="round"/>
<path opacity="0.25" fill-rule="evenodd" clip-rule="evenodd" d="M625.101 387.838C625.944 387.871 626.78 387.676 627.511 387.278C628.241 386.88 628.836 386.294 629.226 385.589C629.595 384.912 629.808 384.17 629.852 383.41C629.883 383.073 630.047 382.76 630.312 382.531C630.576 382.302 630.923 382.175 631.282 382.175C631.642 382.175 631.988 382.302 632.253 382.531C632.518 382.76 632.682 383.073 632.712 383.41C632.708 383.997 632.827 384.578 633.063 385.121C633.299 385.664 633.647 386.157 634.087 386.572C634.527 386.988 635.05 387.317 635.626 387.541C636.202 387.765 636.819 387.88 637.442 387.878C637.82 387.878 638.182 388.019 638.449 388.27C638.716 388.521 638.866 388.862 638.866 389.217C638.866 389.572 638.716 389.913 638.449 390.164C638.182 390.416 637.82 390.557 637.442 390.557C636.614 390.527 635.793 390.715 635.072 391.1C634.351 391.484 633.759 392.051 633.361 392.735C632.968 393.438 632.74 394.211 632.691 395.004C632.68 395.355 632.524 395.688 632.256 395.933C631.988 396.177 631.629 396.314 631.256 396.313C630.882 396.311 630.524 396.17 630.259 395.921C629.995 395.673 629.845 395.336 629.842 394.984C629.845 394.399 629.725 393.819 629.488 393.278C629.252 392.737 628.903 392.246 628.463 391.832C628.023 391.418 627.501 391.091 626.925 390.869C626.35 390.646 625.734 390.533 625.112 390.537C624.754 390.508 624.42 390.354 624.177 390.105C623.934 389.856 623.799 389.53 623.799 389.192C623.799 388.854 623.934 388.528 624.177 388.279C624.42 388.031 624.754 387.876 625.112 387.848L625.101 387.838ZM495.648 307.063C496.356 307.09 497.058 306.926 497.672 306.592C498.285 306.257 498.785 305.766 499.113 305.175C499.424 304.599 499.606 303.97 499.645 303.326C499.672 303.042 499.811 302.778 500.034 302.586C500.257 302.394 500.549 302.287 500.852 302.287C501.154 302.287 501.446 302.394 501.669 302.586C501.893 302.778 502.031 303.042 502.058 303.326C502.052 303.82 502.152 304.31 502.35 304.768C502.548 305.226 502.841 305.642 503.212 305.992C503.584 306.342 504.025 306.619 504.512 306.806C504.998 306.994 505.519 307.088 506.045 307.083C506.205 307.08 506.365 307.106 506.514 307.161C506.663 307.216 506.799 307.298 506.914 307.404C507.029 307.509 507.12 307.635 507.182 307.774C507.245 307.913 507.277 308.062 507.277 308.213C507.277 308.364 507.245 308.513 507.182 308.652C507.12 308.791 507.029 308.917 506.914 309.022C506.799 309.127 506.663 309.21 506.514 309.265C506.365 309.32 506.205 309.346 506.045 309.342C505.348 309.317 504.658 309.475 504.052 309.798C503.445 310.121 502.946 310.596 502.611 311.171C502.279 311.761 502.087 312.413 502.048 313.08C502.039 313.377 501.908 313.659 501.682 313.866C501.455 314.073 501.152 314.189 500.836 314.188C500.52 314.188 500.218 314.071 499.995 313.861C499.771 313.651 499.646 313.367 499.645 313.07C499.646 312.577 499.542 312.088 499.341 311.632C499.14 311.177 498.846 310.763 498.474 310.415C498.103 310.066 497.662 309.791 497.177 309.603C496.692 309.416 496.172 309.32 495.648 309.322C495.487 309.326 495.328 309.299 495.179 309.244C495.029 309.189 494.893 309.107 494.779 309.002C494.664 308.896 494.573 308.771 494.51 308.632C494.448 308.493 494.416 308.343 494.416 308.193C494.416 308.042 494.448 307.892 494.51 307.753C494.573 307.615 494.664 307.489 494.779 307.383C494.893 307.278 495.029 307.196 495.179 307.141C495.328 307.086 495.487 307.059 495.648 307.063Z" stroke="#939AFF" stroke-width="2" stroke-linecap="round" stroke-linejoin="round"/>
<path d="M1533.37 487.412L-2.38905 489.701M1394.51 229.676C1397.48 224.257 1399.16 218.296 1399.44 212.207C1399.71 206.117 1398.58 200.043 1396.12 194.405M1310.53 204.381C1310.23 206.367 1310.08 208.371 1310.08 210.377C1310.08 228.68 1322.67 244.883 1341.22 250.441C1359.77 255.998 1380.01 249.634 1391.27 234.704M1393.19 188.869C1384.1 174.547 1366.86 166.631 1349.26 168.692C1331.65 170.753 1317 182.402 1311.92 198.384M65.8935 320.576C66.4937 320.599 67.0886 320.462 67.6096 320.18C68.1306 319.899 68.5565 319.485 68.8385 318.986C69.098 318.507 69.2498 317.984 69.2844 317.447C69.3097 317.213 69.4265 316.996 69.6121 316.839C69.7977 316.681 70.0389 316.593 70.289 316.593C70.5391 316.593 70.7804 316.681 70.966 316.839C71.1516 316.996 71.2683 317.213 71.2936 317.447C71.2921 317.861 71.3778 318.271 71.5456 318.654C71.7134 319.037 71.96 319.385 72.2713 319.677C72.5826 319.97 72.9523 320.202 73.3593 320.359C73.7662 320.517 74.2022 320.597 74.6423 320.595C74.8904 320.62 75.12 320.73 75.2869 320.905C75.4538 321.079 75.5461 321.305 75.5461 321.54C75.5461 321.775 75.4538 322.001 75.2869 322.175C75.12 322.35 74.8904 322.46 74.6423 322.485C74.0584 322.468 73.481 322.603 72.9731 322.875C72.4651 323.146 72.0462 323.543 71.7619 324.023C71.4886 324.52 71.329 325.065 71.2936 325.623C71.2546 326.147 70.7903 326.553 70.2305 326.552C69.9705 326.538 69.7251 326.434 69.5409 326.261C69.3567 326.088 69.2464 325.857 69.2311 325.612C69.2354 325.199 69.1521 324.789 68.9859 324.406C68.8197 324.024 68.574 323.676 68.2632 323.384C67.9523 323.091 67.5827 322.86 67.1758 322.704C66.7689 322.548 66.333 322.47 65.8935 322.474C65.6812 322.408 65.4963 322.281 65.3653 322.111C65.2342 321.94 65.1636 321.735 65.1636 321.525C65.1636 321.315 65.2342 321.11 65.3653 320.939C65.4963 320.769 65.6812 320.642 65.8935 320.576ZM1317.09 150.97L1318.91 155.608C1319.04 155.939 1319.32 156.2 1319.67 156.327L1324.6 158.036C1324.85 158.125 1325.06 158.281 1325.21 158.484C1325.36 158.688 1325.44 158.929 1325.44 159.176C1325.44 159.423 1325.36 159.664 1325.21 159.868C1325.06 160.071 1324.85 160.227 1324.6 160.315L1319.67 162.024C1319.32 162.153 1319.04 162.414 1318.91 162.743L1317.09 167.381C1316.99 167.612 1316.83 167.811 1316.61 167.951C1316.4 168.091 1316.14 168.166 1315.88 168.166C1315.61 168.166 1315.36 168.091 1315.14 167.951C1314.92 167.811 1314.76 167.612 1314.66 167.381L1312.85 162.743C1312.78 162.58 1312.68 162.432 1312.54 162.309C1312.41 162.185 1312.25 162.088 1312.08 162.024L1307.15 160.315C1306.9 160.227 1306.69 160.071 1306.54 159.868C1306.39 159.664 1306.31 159.423 1306.31 159.176C1306.31 158.929 1306.39 158.688 1306.54 158.484C1306.69 158.281 1306.9 158.125 1307.15 158.036L1312.08 156.328C1312.43 156.2 1312.71 155.939 1312.85 155.608L1314.66 150.97C1314.76 150.739 1314.92 150.541 1315.14 150.4C1315.36 150.26 1315.61 150.185 1315.88 150.185C1316.14 150.185 1316.4 150.26 1316.61 150.4C1316.83 150.541 1316.99 150.739 1317.09 150.97Z" stroke="#939AFF" stroke-width="2" stroke-linecap="round" stroke-linejoin="round"/>
<path d="M1394.58 269.734C1397.59 269.734 1400.03 267.438 1400.03 264.607C1400.03 261.775 1397.59 259.479 1394.58 259.479C1391.57 259.479 1389.12 261.775 1389.12 264.607C1389.12 267.438 1391.57 269.734 1394.58 269.734Z" stroke="#939AFF" stroke-width="2" stroke-linecap="round" stroke-linejoin="round"/>
<path d="M1357.49 191.618C1358.95 191.618 1360.14 190.499 1360.14 189.119C1360.14 187.739 1358.95 186.621 1357.49 186.621C1356.02 186.621 1354.83 187.739 1354.83 189.119C1354.83 190.499 1356.02 191.618 1357.49 191.618Z" fill="#939AFF"/>
<path d="M1321.73 204.161H1305.99M1299.94 204.161H1296.2M1398.11 189.529H1385.82M1415.12 189.529H1409.8" stroke="#939AFF" stroke-width="2" stroke-linecap="round" stroke-linejoin="round"/>
<path d="M1404.04 190.528C1404.63 190.528 1405.1 190.081 1405.1 189.529C1405.1 188.977 1404.63 188.53 1404.04 188.53C1403.45 188.53 1402.98 188.977 1402.98 189.529C1402.98 190.081 1403.45 190.528 1404.04 190.528Z" fill="#939AFF"/>
<path d="M1402.78 234.414H1386.18" stroke="#939AFF" stroke-width="2" stroke-linecap="round" stroke-linejoin="round"/>
<path d="M1380.86 235.413C1381.45 235.413 1381.93 234.966 1381.93 234.414C1381.93 233.862 1381.45 233.414 1380.86 233.414C1380.28 233.414 1379.8 233.862 1379.8 234.414C1379.8 234.966 1380.28 235.413 1380.86 235.413Z" fill="#939AFF"/>
<path d="M1339.29 222.86V214.894M1335.04 218.882H1343.54" stroke="#939AFF" stroke-width="2" stroke-linecap="round" stroke-linejoin="round"/>
</g>
<g clip-path="url(#clip1_0_116)">
<rect width="43" height="42.8088" transform="translate(578.774 149)" fill="#161B22"/>
<path d="M618.591 149H581.949C580.193 149 578.774 150.38 578.774 152.085V188.715C578.774 190.421 580.193 191.809 581.949 191.809H618.591C620.346 191.809 621.774 190.421 621.774 188.724V152.085C621.774 150.38 620.346 149 618.591 149ZM591.531 185.479H585.148V165.045H591.531V185.479ZM588.34 162.261C586.291 162.261 584.636 160.614 584.636 158.582C584.636 156.55 586.291 154.903 588.34 154.903C590.381 154.903 592.035 156.55 592.035 158.582C592.035 160.605 590.381 162.261 588.34 162.261ZM615.416 185.479H609.042V175.546C609.042 173.18 609 170.128 605.725 170.128C602.407 170.128 601.903 172.712 601.903 175.379V185.479H595.537V165.045H601.651V167.838H601.735C602.584 166.232 604.666 164.535 607.765 164.535C614.224 164.535 615.416 168.766 615.416 174.267V185.479Z" fill="#939AFF"/>
</g>
<path fill-rule="evenodd" clip-rule="evenodd" d="M910.493 150C905.389 150.003 900.452 151.867 896.565 155.259C892.679 158.651 890.095 163.35 889.278 168.515C888.46 173.681 889.461 178.976 892.102 183.455C894.743 187.933 898.851 191.302 903.693 192.96C904.761 193.164 905.163 192.481 905.163 191.901C905.163 191.321 905.142 189.638 905.135 187.798C899.153 189.13 897.89 185.195 897.89 185.195C896.914 182.64 895.504 181.969 895.504 181.969C893.553 180.604 895.65 180.629 895.65 180.629C897.811 180.786 898.947 182.903 898.947 182.903C900.862 186.272 903.978 185.298 905.202 184.728C905.395 183.301 905.954 182.33 906.569 181.779C901.792 181.224 896.772 179.333 896.772 170.887C896.742 168.696 897.535 166.578 898.986 164.97C898.765 164.415 898.028 162.174 899.196 159.129C899.196 159.129 901.001 158.538 905.11 161.389C908.634 160.401 912.352 160.401 915.876 161.389C919.981 158.538 921.783 159.129 921.783 159.129C922.954 162.166 922.217 164.407 921.996 164.97C923.452 166.578 924.247 168.7 924.214 170.894C924.214 179.359 919.184 181.224 914.399 181.768C915.168 182.454 915.855 183.794 915.855 185.853C915.855 188.802 915.83 191.175 915.83 191.901C915.83 192.489 916.218 193.175 917.307 192.96C922.149 191.302 926.258 187.932 928.899 183.453C931.54 178.974 932.54 173.678 931.722 168.512C930.903 163.346 928.319 158.647 924.431 155.255C920.543 151.864 915.605 150.001 910.5 150H910.493Z" fill="#939AFF"/>
<defs>
<clipPath id="clip0_0_116">
<rect width="1529" height="448" fill="white" transform="translate(0 98)"/>
</clipPath>
<clipPath id="clip1_0_116">
<rect width="43" height="42.8088" fill="white" transform="translate(578.774 149)"/>
</clipPath>
</defs>
</svg>
