<svg width="89" height="80" viewBox="0 0 89 80" fill="none" xmlns="http://www.w3.org/2000/svg">
<g filter="url(#filter0_f_0_460)">
<rect x="28.6719" y="20" width="32" height="32" rx="16" fill="#57D364"/>
</g>
<path d="M58.8914 44.3675C58.7206 43.4989 58.436 42.6303 58.0944 41.8196C56.8419 38.8085 54.5647 36.3185 51.7751 34.8708C52.5721 33.6548 53.0276 32.2071 53.0276 30.6437C53.0276 26.4165 49.6687 23 45.5128 23C41.3569 23 37.998 26.4165 37.998 30.6437C37.998 32.2071 38.4534 33.6548 39.2504 34.8708C35.55 36.7817 32.9312 40.2561 32.0772 44.3096C31.8495 45.4677 32.1341 46.6258 32.8173 47.5523C33.5574 48.4788 34.6391 49 35.7777 49H55.1909C56.3295 49 57.4112 48.4788 58.1513 47.5523C58.8914 46.6837 59.1761 45.5256 58.8914 44.3675ZM45.4558 25.4321C48.3024 25.4321 50.5796 27.8062 50.5796 30.6437C50.5796 33.4811 48.2454 35.8552 45.4558 35.8552C42.6093 35.8552 40.3321 33.4811 40.3321 30.6437C40.3321 27.8062 42.6663 25.4321 45.4558 25.4321ZM56.2726 46.1047C55.988 46.4521 55.5894 46.6258 55.1909 46.6258H35.7777C35.3222 46.6258 34.9237 46.4521 34.696 46.1047C34.4114 45.7572 34.2975 45.294 34.4114 44.8886C35.1514 41.3563 37.5425 38.3452 40.7875 36.7817C40.8445 36.7817 40.8445 36.7238 40.9014 36.7238C42.1539 37.7082 43.7479 38.3452 45.4558 38.3452C47.1637 38.3452 48.7578 37.7661 50.0672 36.7238C50.1241 36.7238 50.1241 36.7817 50.1811 36.7817C52.7429 37.9978 54.7924 40.0824 55.8741 42.7461C56.1587 43.441 56.3865 44.1359 56.5573 44.8886C56.6711 45.2361 56.5573 45.7572 56.2726 46.1047Z" fill="#D1E8D3"/>
<defs>
<filter id="filter0_f_0_460" x="0.671875" y="-8" width="88" height="88" filterUnits="userSpaceOnUse" color-interpolation-filters="sRGB">
<feFlood flood-opacity="0" result="BackgroundImageFix"/>
<feBlend mode="normal" in="SourceGraphic" in2="BackgroundImageFix" result="shape"/>
<feGaussianBlur stdDeviation="14" result="effect1_foregroundBlur_0_460"/>
</filter>
</defs>
</svg>
