<svg width="20" height="27" viewBox="0 0 20 27" fill="none" xmlns="http://www.w3.org/2000/svg">
<path d="M5.9496 2.13484C5.9496 0.956407 6.65527 0 7.52475 0H12.4752C13.3447 0 14.0504 0.956407 14.0504 2.13484V4.87963H18.3258C19.1953 4.87963 19.901 5.83604 19.901 7.01447V24.7031C19.901 25.2693 19.735 25.8123 19.4396 26.2127C19.1442 26.613 18.7436 26.838 18.3258 26.838H1.67418C1.25643 26.838 0.85578 26.613 0.560381 26.2127C0.264983 25.8123 0.0990295 25.2693 0.0990295 24.7031V7.01447C0.0990295 5.83604 0.804698 4.87963 1.67418 4.87963H5.9496V2.13484ZM1.44916 14.6267V24.7031C1.44916 24.8715 1.54997 25.0081 1.67418 25.0081H18.3258C18.3855 25.0081 18.4427 24.976 18.4849 24.9188C18.5271 24.8616 18.5508 24.784 18.5508 24.7031V14.6267C17.8602 15.4234 16.9825 15.8603 16.0756 15.8588H3.9244C3.01745 15.8603 2.13982 15.4234 1.44916 14.6267ZM18.5508 10.6742V7.01447C18.5508 6.93358 18.5271 6.85601 18.4849 6.79882C18.4427 6.74162 18.3855 6.70949 18.3258 6.70949H1.67418C1.6145 6.70949 1.55727 6.74162 1.51507 6.79882C1.47287 6.85601 1.44916 6.93358 1.44916 7.01447V10.6742C1.44916 11.5639 1.70995 12.4172 2.17414 13.0464C2.63834 13.6755 3.26793 14.0289 3.9244 14.0289H16.0756C16.7321 14.0289 17.3617 13.6755 17.8258 13.0464C18.29 12.4172 18.5508 11.5639 18.5508 10.6742ZM12.7003 2.13484C12.7003 2.05395 12.6766 1.97638 12.6344 1.91919C12.5922 1.86199 12.5349 1.82986 12.4752 1.82986H7.52475C7.46508 1.82986 7.40784 1.86199 7.36564 1.91919C7.32344 1.97638 7.29973 2.05395 7.29973 2.13484V4.87963H12.7003V2.13484Z" fill="white"/>
</svg>
